<svg width="31" height="20" viewBox="0 0 31 20" fill="none" xmlns="http://www.w3.org/2000/svg">
<path d="M29.2778 7.64307H29.273L25.289 7.66761C24.8668 7.67078 24.5262 8.01533 24.5294 8.43671C24.5318 8.85809 24.8739 9.19708 25.2937 9.19708H25.2985L29.2833 9.17253C29.7055 9.16936 30.0453 8.82561 30.0429 8.40344C30.0405 7.98206 29.6984 7.64307 29.2778 7.64307Z" fill="white"/>
<path d="M25.2777 6.20628C25.4749 6.20628 25.6722 6.13024 25.8219 5.97896L27.7988 3.97742C28.0959 3.67644 28.0927 3.19248 27.7917 2.89626C27.4915 2.59844 27.0076 2.6024 26.7106 2.90259L24.7335 4.90334C24.4365 5.20432 24.4397 5.68826 24.7399 5.9853C24.8888 6.13262 25.0837 6.20628 25.2777 6.20628Z" fill="white"/>
<path d="M25.8654 10.8913C25.5652 10.5943 25.0805 10.5983 24.7842 10.8992C24.4872 11.1994 24.4904 11.6834 24.7914 11.9804L26.7802 13.9447C26.9292 14.092 27.1232 14.1649 27.3173 14.1649C27.5145 14.1649 27.7125 14.0889 27.8614 13.9376C28.1584 13.6374 28.1553 13.1534 27.8551 12.8556L25.8654 10.8913Z" fill="white"/>
<path d="M21.9319 5.83165L21.905 1.4951C21.9026 1.22818 21.7632 0.981855 21.5351 0.844823C21.3062 0.706212 21.0234 0.697507 20.7882 0.821058L18.5482 1.98302C16.3059 3.14576 13.7839 3.76912 11.2557 3.78575L5.34213 3.82219C2.72357 3.8396 0.606389 5.98293 0.62222 8.60148C0.630139 9.87037 1.13152 11.0593 2.03447 11.9511C2.93663 12.8422 4.12631 13.3008 5.40153 13.3206L6.8019 13.3119L8.34246 17.8203C8.63869 18.686 9.45056 19.2658 10.3646 19.2658H10.3789L12.3923 19.2539C12.645 19.2523 12.881 19.1264 13.022 18.9165C13.163 18.7066 13.1915 18.4405 13.098 18.2052L11.1329 13.2849L11.3777 13.2834C13.8433 13.2826 16.3518 13.8489 18.5735 14.9673L20.884 16.1285C20.9925 16.1831 21.1097 16.21 21.2277 16.21C21.3679 16.21 21.5081 16.1712 21.6309 16.0952C21.8566 15.9542 21.9937 15.7063 21.9921 15.4409L21.9652 11.1044C22.4055 10.9737 22.8135 10.7456 23.1453 10.4098C23.6625 9.88542 23.9453 9.19157 23.9406 8.45495C23.9327 7.2027 23.0804 6.15877 21.9319 5.83165ZM5.39203 11.7911C4.52789 11.807 3.72077 11.4672 3.1093 10.8628C2.49704 10.2585 2.15724 9.45215 2.1517 8.59199C2.1414 6.88588 3.47128 5.49027 5.15045 5.37383C4.78927 6.24114 4.46531 7.48388 4.71877 8.86287C4.9152 9.93452 5.42687 10.9111 6.23953 11.7856L5.39203 11.7911ZM11.2612 17.7308L10.3694 17.7363H10.3654C10.1048 17.7363 9.87431 17.5724 9.79035 17.326L8.41454 13.3016L9.49016 13.2952L11.2612 17.7308ZM19.2603 13.6002C16.8563 12.3915 14.1673 11.7539 11.4751 11.7539H11.3681L10.024 11.7618H10.0224L8.57692 11.7713C7.24387 10.8589 6.44943 9.79354 6.22528 8.5999C5.96073 7.18924 6.5429 5.91164 6.8629 5.34215L11.2652 5.31523C14.0342 5.297 16.7962 4.61503 19.2523 3.34061L20.3834 2.7537L20.4064 6.48351V6.4851L20.4317 10.4684L20.4309 10.4692L20.4317 10.47L20.4547 14.2006L19.2603 13.6002ZM22.057 9.33494C22.0253 9.36661 21.9889 9.39196 21.9541 9.42048L21.9422 7.51558C22.2234 7.73893 22.4087 8.07873 22.4111 8.46446C22.4127 8.79238 22.2875 9.10127 22.057 9.33494Z" fill="white"/>
</svg>
